<svg width="40" height="60" viewBox="0 0 40 60" fill="none" xmlns="http://www.w3.org/2000/svg">
<path d="M29.8297 19.997C32.4296 19.919 34.8968 18.8314 36.7082 16.9648C38.5196 15.0982 39.5327 12.5995 39.5327 9.9985C39.5327 7.3975 38.5196 4.89878 36.7082 3.03221C34.8968 1.16564 32.4296 0.0780251 29.8297 0H9.82974C7.22991 0.0780251 4.76271 1.16564 2.95132 3.03221C1.13993 4.89878 0.126813 7.3975 0.126813 9.9985C0.126813 12.5995 1.13993 15.0982 2.95132 16.9648C4.76271 18.8314 7.22991 19.919 9.82974 19.997C7.20718 20.0424 4.70739 21.1161 2.86882 22.9868C1.03024 24.8575 0 27.3755 0 29.9985C0 32.6215 1.03024 35.1395 2.86882 37.0102C4.70739 38.8809 7.20718 39.9546 9.82974 40C7.22 40.0639 4.73864 41.1456 2.91547 43.014C1.09229 44.8824 0.0717574 47.3895 0.0717574 50C0.0717574 52.6105 1.09229 55.1176 2.91547 56.986C4.73864 58.8544 7.22 59.9361 9.82974 60C12.4819 59.9984 15.025 58.9439 16.9001 57.0682C18.7752 55.1926 19.8289 52.6492 19.8297 49.997V19.997H29.8297Z" fill="#F2F2F3"/>
<path d="M29.8298 39.9969C35.3527 39.9969 39.8298 35.5197 39.8298 29.9969C39.8298 24.474 35.3527 19.9969 29.8298 19.9969C24.307 19.9969 19.8298 24.474 19.8298 29.9969C19.8298 35.5197 24.307 39.9969 29.8298 39.9969Z" fill="#F2F2F3"/>
</svg>
