<svg width="68" height="60" viewBox="0 0 68 60" fill="none" xmlns="http://www.w3.org/2000/svg">
<path d="M33.7202 36.0145C37.0411 36.0145 39.7332 33.3224 39.7332 30.0015C39.7332 26.6806 37.0411 23.9885 33.7202 23.9885C30.3993 23.9885 27.7072 26.6806 27.7072 30.0015C27.7072 33.3224 30.3993 36.0145 33.7202 36.0145Z" fill="#F2F2F3"/>
<path d="M16.8836 41.9568L15.553 41.6165C5.66942 39.1204 0 34.8759 0 29.988C0 25.0967 5.67279 20.8556 15.553 18.3595L16.8836 18.0226L17.2575 19.3397C18.2565 22.7882 19.5363 26.149 21.0843 29.3884L21.3706 29.988L21.0843 30.5876C19.5347 33.8316 18.2513 37.1935 17.2575 40.643L16.8836 41.9568ZM14.9399 21.4249C7.43122 23.5404 2.81955 26.7676 2.81955 29.988C2.81955 33.2017 7.42785 36.4322 14.9399 38.5443C15.8596 35.6204 16.9712 32.7604 18.258 29.988C16.9619 27.211 15.8534 24.3502 14.9399 21.4249ZM50.5532 41.9568L50.1826 40.6363C49.181 37.1871 47.9001 33.8253 46.3525 30.5842L46.0661 29.988L46.3525 29.385C47.902 26.1478 49.1787 22.7825 50.1826 19.333L50.5532 18.0192L51.8838 18.3561C61.7707 20.8523 67.4368 25.0934 67.4368 29.988C67.4368 34.8793 61.7674 39.1204 51.8838 41.6165L50.5532 41.9568ZM49.172 29.988C50.5195 32.9052 51.6412 35.7753 52.4969 38.5443C60.0089 36.4322 64.6206 33.2017 64.6206 29.988C64.6206 26.7676 60.0123 23.5438 52.4969 21.4249C51.5781 24.3493 50.4675 27.2099 49.172 29.988Z" fill="#F2F2F3"/>
<path d="M14.9198 21.4115L14.5493 20.0977C11.7668 10.3017 12.6089 3.28487 16.8635 0.839234C21.0238 -1.56934 27.7173 1.27716 34.7274 8.4692L35.6841 9.45284L34.7274 10.4331C32.2376 13.0225 29.9619 15.8097 27.9228 18.7671L27.5421 19.3128L26.8819 19.3667C23.2962 19.6484 19.7395 20.2218 16.2471 21.0814L14.9198 21.4115ZM20.249 2.78631C19.4944 2.78631 18.8274 2.95137 18.2649 3.27476C15.4756 4.8816 14.9838 10.4769 16.9039 18.0294C19.9054 17.3658 22.9338 16.8908 25.9858 16.6247C27.7527 14.1186 29.6802 11.7297 31.7563 9.47305C27.3669 5.20499 23.2235 2.78631 20.249 2.78631ZM47.188 59.9993C43.1861 59.9993 38.0455 56.981 32.7096 51.5036L31.7563 50.5233L32.7096 49.5464C35.1998 46.9528 37.4766 44.1623 39.5176 41.2023L39.8949 40.6633L40.5484 40.5993C44.1353 40.3226 47.6934 39.7514 51.1866 38.8914L52.5172 38.5545L52.8911 39.8716C55.6601 49.6609 54.8213 56.6879 50.5735 59.1335C49.5421 59.7181 48.3734 60.017 47.188 59.9993ZM35.6841 50.4997C40.0701 54.7678 44.2169 57.1898 47.188 57.1898C47.9459 57.1898 48.6129 57.0214 49.1721 56.7014C51.9647 55.0911 52.4599 49.4857 50.5331 41.9333C47.535 42.6002 44.5032 43.0786 41.4445 43.3447C39.6851 45.8548 37.7607 48.245 35.6841 50.4997Z" fill="#F2F2F3"/>
<path d="M52.5171 21.4115L51.1865 21.078C47.6935 20.2158 44.1354 19.6423 40.5483 19.3634L39.8948 19.3061L39.5175 18.7604C37.4793 15.8013 35.2024 13.014 32.7095 10.4264L31.7562 9.44613L32.7095 8.46922C39.7163 1.28055 46.4064 -1.56595 50.5734 0.839254C54.8246 3.28825 55.6702 10.3051 52.891 20.0978L52.5171 21.4115ZM41.4444 16.6247C44.6581 16.911 47.7033 17.3927 50.533 18.0294C52.4565 10.4769 51.9646 4.88162 49.1721 3.27141C46.3963 1.66457 41.1715 4.12368 35.684 9.47307C37.7591 11.7301 39.686 14.1151 41.4444 16.6247ZM20.2489 59.9993C19.0636 60.0162 17.8951 59.7174 16.8634 59.1335C12.6089 56.6879 11.7667 49.6643 14.5458 39.8717L14.9096 38.5545L16.2402 38.8914C19.4876 39.71 23.0651 40.286 26.8784 40.5993L27.5319 40.6633L27.9126 41.2023C29.9472 44.1599 32.2244 46.9525 34.7172 49.5464L35.6739 50.5233L34.7172 51.5036C29.3847 56.9843 24.2441 59.9993 20.2489 59.9993ZM16.9039 41.9366C14.9837 49.4891 15.4756 55.0945 18.2648 56.7048C21.0439 58.288 26.2518 55.8457 31.7562 50.4997C29.681 48.2424 27.7535 45.8535 25.9857 43.3481C22.9307 43.0779 19.8968 42.6064 16.9039 41.9366Z" fill="#F2F2F3"/>
<path d="M33.72 43.7052C31.4057 43.7052 29.0308 43.6075 26.6458 43.4087L25.9856 43.3514L25.6049 42.8057C24.26 40.8718 22.9946 38.8838 21.8118 36.8466C20.6378 34.804 19.5466 32.7148 18.5409 30.5843L18.2579 29.9881L18.5409 29.3851C19.5481 27.2561 20.6362 25.1675 21.8118 23.1261C22.9808 21.1184 24.2575 19.1107 25.6049 17.1637L25.9856 16.6247L26.6458 16.564C31.3515 16.1699 36.0818 16.1699 40.7874 16.564L41.4409 16.628L41.8216 17.167C44.5158 21.0367 46.8821 25.1248 48.8957 29.3884L49.1753 29.9914L48.8957 30.5877C46.8876 34.8543 44.5211 38.9427 41.8216 42.8091L41.4409 43.3548L40.7874 43.4121C38.4091 43.6041 36.0309 43.7052 33.72 43.7052ZM27.5419 40.6599C31.7022 40.9732 35.7378 40.9732 39.8947 40.6599C42.2153 37.2617 44.2782 33.6944 46.066 29.9881C44.2845 26.2784 42.2214 22.7107 39.8947 19.3162C35.7832 18.9996 31.6534 18.9996 27.5419 19.3162C25.2133 22.7094 23.1501 26.2773 21.3706 29.9881C23.1623 33.6924 25.225 37.2593 27.5419 40.6599Z" fill="#F2F2F3"/>
</svg>
